# xmcd
# Copyright (C) 1995-1998 Ti Kan
#
# Track frame offsets:
#       150
#       20047
#       32545
#       48720
#       60450
#       75225
#       86857
#       101090
#       113387
#       125747
#       138792
#       152777
#       165710
#       180110
#       195805
#       236586
#       306789
#
# Disc length: 4266 seconds
#
# Revision: 5
# Processed by: cddbd v1.5.2PL0 Copyright (c) Steve Scherf et al.
# Submitted via: CD-Import v1.0
#
DISCID=cb10a811
DTITLE=Cab Calloway - Stadtfilter Jazz Collection
DYEAR=1900
DGENRE=
TTITLE0=Afro-Bossa
TTITLE1=Purple Gazelle
TTITLE2=Absinthe
TTITLE3=Moonbow
TTITLE4=Sempre Amoré
TTITLE5=Silk Lace
TTITLE6=Tigress
TTITLE7=Angu
TTITLE8=Volupté
TTITLE9=Bonga
TTITLE10=Pyramid
TTITLE11=Eighth Veil
TTITLE12=What's The Use Of Living Without Love
TTITLE13=In My Life
TTITLE14=What's The Use Of Living Without Love
TTITLE15=La Nevada
TTITLE16=Eady Was A Lady
EXTD=
EXTT0=
EXTT1=
EXTT2=
EXTT3=
EXTT4=
EXTT5=
EXTT6=
EXTT7=
EXTT8=
EXTT9=
EXTT10=
EXTT11=
EXTT12=
EXTT13=
EXTT14=
EXTT15=
EXTT16=
PLAYORDER=
